<svg width="25" height="25" viewBox="0 0 25 25" fill="none" xmlns="http://www.w3.org/2000/svg">
<path fill-rule="evenodd" clip-rule="evenodd" d="M23.8574 7.28162C23.8324 7.33546 23.802 7.38711 23.7579 7.4317L8.58349 22.6056C8.52422 22.7078 8.44211 22.797 8.3252 22.8416L0.792899 24.9514C0.77713 24.959 0.759185 24.9601 0.741785 24.9656L0.716228 24.9732C0.711877 24.9748 0.706983 24.9737 0.703177 24.9754C0.652063 24.9889 0.601492 25.0004 0.547659 24.9998C0.494369 25.0015 0.444886 24.9917 0.394316 24.9775C0.382897 24.9743 0.372565 24.9764 0.361146 24.9726C0.356796 24.971 0.354077 24.9672 0.349727 24.9656C0.301875 24.9476 0.260548 24.9204 0.219222 24.8889C0.198015 24.8737 0.17572 24.8601 0.157776 24.8421C0.139831 24.8242 0.126237 24.8019 0.111012 24.7807C0.0794729 24.7399 0.0528282 24.698 0.03434 24.6502C0.0321649 24.6458 0.0289023 24.6431 0.027271 24.6388C0.0234646 24.6279 0.0256397 24.617 0.022377 24.6056C0.0087828 24.5556 -0.00100507 24.5055 8.24714e-05 24.4528C8.24714e-05 24.3984 0.0109579 24.3478 0.0245522 24.2967C0.0267272 24.2924 0.0250959 24.288 0.0267272 24.2842L0.03434 24.2576C0.0403215 24.2413 0.041409 24.2233 0.0484781 24.207L2.15831 16.6747C2.20289 16.5573 2.29207 16.4768 2.3943 16.4164L17.3366 1.47362C17.3583 1.44915 17.3839 1.42848 17.4062 1.40456L17.5687 1.24197C17.5769 1.23381 17.5872 1.2311 17.5959 1.22348C18.3811 0.47308 19.435 0 20.6079 0C23.0244 0 24.9836 1.9592 24.9836 4.37572C24.9836 5.49643 24.5513 6.50838 23.8574 7.28162ZM21.8025 7.88466L19.8346 5.91676L6.97991 18.772C6.98209 18.7764 6.98753 18.778 6.9897 18.7824L8.28007 21.4071L21.8025 7.88466ZM1.36168 23.6393L2.87608 23.2157L1.78528 22.1255L1.36168 23.6393ZM2.11426 20.9515L4.04899 22.8867L7.37687 21.9542C7.37687 21.9542 5.97068 19.033 5.9685 19.0319L3.04628 17.6236L2.11426 20.9515ZM6.21809 18.0118C6.22244 18.014 6.22407 18.0189 6.22842 18.0216L19.0837 5.16581L17.1158 3.19791L3.59331 16.7204L6.21809 18.0118ZM20.591 1.08754C19.622 1.08754 18.7574 1.50951 18.15 2.17182L18.1462 2.16801L17.8667 2.44696L22.5535 7.13372L22.8401 6.84661L22.8368 6.84334C23.4942 6.2365 23.9129 5.37462 23.9129 4.40943C23.9129 2.57475 22.4257 1.08754 20.591 1.08754Z" fill="white"/>
</svg>
