<svg width="26" height="22" viewBox="0 0 26 22" fill="none" xmlns="http://www.w3.org/2000/svg">
<path fill-rule="evenodd" clip-rule="evenodd" d="M0.738259 6.13773C0.364735 9.60826 0.381385 13.6109 0.901149 17.0673C1.18875 18.9799 2.74964 20.4461 4.6764 20.6135L6.69004 20.7886C10.8888 21.1536 15.1113 21.1536 19.31 20.7886L21.3236 20.6135C23.2504 20.4461 24.8113 18.9799 25.0989 17.0673C25.6186 13.6109 25.6353 9.60848 25.2618 6.13794C25.2135 5.73559 25.1592 5.33379 25.0989 4.93265C24.8113 3.02013 23.2504 1.55394 21.3236 1.38645L19.31 1.21141C15.1112 0.846421 10.8888 0.846421 6.69004 1.21141L4.6764 1.38645C2.74964 1.55394 1.18875 3.02013 0.901149 4.93265C0.840839 5.33372 0.786542 5.73545 0.738259 6.13773ZM6.86324 3.20389C10.9467 2.84893 15.0533 2.84893 19.1368 3.20389L21.1504 3.37894C22.1562 3.46637 22.971 4.23172 23.1211 5.23006C23.1367 5.33374 23.1519 5.43746 23.1666 5.54123L15.7519 9.66049C14.0405 10.6113 11.9594 10.6113 10.248 9.66049L2.8334 5.54128C2.84815 5.4375 2.86332 5.33376 2.87891 5.23006C3.02904 4.23172 3.84383 3.46637 4.8496 3.37894L6.86324 3.20389ZM23.4113 7.69319C23.67 10.7169 23.5732 13.7633 23.1211 16.7699C22.971 17.7683 22.1562 18.5336 21.1504 18.6211L19.1368 18.7961C15.0533 19.1511 10.9467 19.1511 6.86325 18.7961L4.8496 18.6211C3.84383 18.5336 3.02904 17.7683 2.87891 16.7699C2.42679 13.7633 2.33005 10.7169 2.58867 7.69324L9.2767 11.4088C11.5922 12.6952 14.4077 12.6952 16.7232 11.4088L23.4113 7.69319Z" fill="white"/>
</svg>
