<svg width="24" height="24" viewBox="0 0 24 24" fill="none" xmlns="http://www.w3.org/2000/svg">
<path d="M12 0C18.6274 0 24 5.37258 24 12C24 18.6274 18.6274 24 12 24C5.37258 24 0 18.6274 0 12C0 5.37258 5.37258 0 12 0ZM12 2C6.47715 2 2 6.47715 2 12C2 17.5228 6.47715 22 12 22C17.5228 22 22 17.5228 22 12C22 6.47715 17.5228 2 12 2ZM10.4991 14.0848L16.2406 8.32796C16.6306 7.93692 17.2637 7.93607 17.6548 8.32607C18.0024 8.67274 18.0417 9.21154 17.7722 9.60163L17.6567 9.74028L11.2081 16.2062C10.8611 16.5541 10.3216 16.5931 9.93152 16.3229L9.79289 16.2071L6.29289 12.7071C5.90237 12.3166 5.90237 11.6834 6.29289 11.2929C6.64003 10.9458 7.17887 10.9072 7.56861 11.1772L7.70711 11.2929L10.4991 14.0848L16.2406 8.32796L10.4991 14.0848Z" fill="white"/>
</svg>
