<svg width="38" height="33" viewBox="0 0 38 33" fill="none" xmlns="http://www.w3.org/2000/svg">
<path d="M12.6666 8.88308C13.4016 8.88303 14.12 8.66506 14.7311 8.25673C15.3423 7.84835 15.8187 7.26791 16.1 6.5888C16.3813 5.90969 16.4549 5.16242 16.3115 4.44148C16.1681 3.72054 15.8141 3.05832 15.2943 2.53855C14.7745 2.01878 14.1123 1.66482 13.3914 1.52141C12.6705 1.37801 11.9232 1.45161 11.2441 1.73291C10.565 2.0142 9.98451 2.49056 9.57613 3.10174C9.16795 3.71263 8.95 4.43079 8.94979 5.16548L12.6666 8.88308ZM12.6666 8.88308C11.6813 8.88177 10.7366 8.48976 10.0399 7.793C9.34295 7.09608 8.95092 6.15118 8.94979 5.16559L12.6666 8.88308ZM35.756 15.2311C36.1644 14.6199 36.3823 13.9014 36.3823 13.1663C36.3809 12.1811 35.9889 11.2366 35.2922 10.5399C34.5953 9.84295 33.6504 9.45092 32.6648 9.44979L35.756 15.2311ZM35.756 15.2311C35.3476 15.8423 34.7672 16.3187 34.088 16.6M35.756 15.2311L34.088 16.6M34.088 16.6C33.4089 16.8813 32.6617 16.9549 31.9407 16.8115M34.088 16.6L31.9407 16.8115M31.9407 16.8115C31.2198 16.6681 30.5576 16.3141 30.0378 15.7943M31.9407 16.8115L30.0378 15.7943M30.0378 15.7943C29.518 15.2745 29.1641 14.6123 29.0207 13.8914M30.0378 15.7943L29.0207 13.8914M29.0207 13.8914C28.8773 13.1704 28.9509 12.4232 29.2322 11.7441M29.0207 13.8914L29.2322 11.7441M29.2322 11.7441C29.5134 11.065 29.9898 10.4845 30.601 10.0761M29.2322 11.7441L30.601 10.0761M30.601 10.0761C31.2119 9.66795 31.93 9.45 32.6647 9.44979L30.601 10.0761ZM8.38308 13.166C8.38303 12.4311 8.16506 11.7126 7.75673 11.1015C7.34835 10.4903 6.76791 10.014 6.0888 9.73269C5.40969 9.45139 4.66242 9.37779 3.94148 9.5212C3.22054 9.6646 2.55832 10.0186 2.03855 10.5383C1.51878 11.0581 1.16482 11.7203 1.02141 12.4413C0.878011 13.1622 0.951611 13.9095 1.23291 14.5886C1.5142 15.2677 1.99056 15.8481 2.60174 16.2565C3.21263 16.6647 3.93079 16.8827 4.66548 16.8829L8.38308 13.166ZM8.38308 13.166C8.38177 14.1514 7.98976 15.096 7.293 15.7928C6.59608 16.4897 5.65118 16.8817 4.66559 16.8829L8.38308 13.166ZM24.6663 8.88308C25.4012 8.88303 26.1197 8.66506 26.7308 8.25673C27.342 7.84835 27.8183 7.26791 28.0996 6.5888C28.3809 5.90969 28.4545 5.16242 28.3111 4.44148C28.1677 3.72054 27.8138 3.05832 27.294 2.53855C26.7742 2.01878 26.112 1.66482 25.3911 1.52141C24.6701 1.37801 23.9229 1.45161 23.2437 1.73291C22.5646 2.0142 21.9842 2.49056 21.5758 3.10174C21.1676 3.71263 20.9497 4.43079 20.9495 5.16548L24.6663 8.88308ZM24.6663 8.88308C23.6809 8.88177 22.7363 8.48976 22.0395 7.793C21.3426 7.09608 20.9506 6.15118 20.9495 5.16559L24.6663 8.88308ZM9.27755 20.8049L9.27757 20.8049L9.28542 20.8006C10.8675 19.9235 12.037 18.4546 12.5373 16.7162C12.9232 15.3896 13.7292 14.224 14.8342 13.3946C15.9395 12.5648 17.2843 12.1163 18.6664 12.1164C20.0485 12.1165 21.3932 12.5651 22.4984 13.395C23.6035 14.2246 24.4094 15.3905 24.7952 16.7173C25.2441 18.2732 26.2285 19.6129 27.5645 20.5062V20.5386L28.061 20.8084C29.3513 21.5094 30.3225 22.6799 30.7732 24.0775C31.2239 25.4751 31.1196 26.9924 30.4819 28.3152C29.8443 29.638 28.7222 30.6647 27.3481 31.1826C25.974 31.7005 24.4534 31.6699 23.1012 31.0971L23.1013 31.097L23.0922 31.0933C20.2512 29.9242 17.063 29.9266 14.2238 31.1L14.2238 31.1L14.2185 31.1023C12.8656 31.671 11.3459 31.6979 9.97379 31.1771C8.60171 30.6564 7.48238 29.6281 6.84751 28.305C6.21264 26.9818 6.11084 25.4652 6.56318 24.0691C7.01552 22.673 7.98737 21.5043 9.27755 20.8049Z" stroke="white" stroke-width="1.9"/>
</svg>
