<svg width="21" height="23" viewBox="0 0 21 23" fill="none" xmlns="http://www.w3.org/2000/svg">
<path fill-rule="evenodd" clip-rule="evenodd" d="M4.66667 5.66667C4.66667 2.53705 7.20372 0 10.3333 0C13.4629 0 16 2.53705 16 5.66667C16 8.79628 13.4629 11.3333 10.3333 11.3333C7.20372 11.3333 4.66667 8.79628 4.66667 5.66667ZM10.3333 2C8.30829 2 6.66667 3.64162 6.66667 5.66667C6.66667 7.69171 8.30829 9.33333 10.3333 9.33333C12.3584 9.33333 14 7.69171 14 5.66667C14 3.64162 12.3584 2 10.3333 2Z" fill="white"/>
<path fill-rule="evenodd" clip-rule="evenodd" d="M5 15.3333C3.34315 15.3333 2 16.6765 2 18.3333V19.9177C2 19.9418 2.01748 19.9624 2.04129 19.9663C7.53297 20.8629 13.1337 20.8629 18.6254 19.9663C18.6492 19.9624 18.6667 19.9418 18.6667 19.9177V18.3333C18.6667 16.6765 17.3235 15.3333 15.6667 15.3333H15.2122C15.177 15.3333 15.1421 15.3389 15.1087 15.3498L13.9547 15.7266C11.6016 16.495 9.06508 16.495 6.71198 15.7266L5.55796 15.3498C5.52455 15.3389 5.48963 15.3333 5.45449 15.3333H5ZM0 18.3333C0 15.5719 2.23858 13.3333 5 13.3333H5.45449C5.70048 13.3333 5.94492 13.3722 6.17876 13.4486L7.33278 13.8254C9.2825 14.4621 11.3842 14.4621 13.3339 13.8254L14.4879 13.4486C14.7217 13.3722 14.9662 13.3333 15.2122 13.3333H15.6667C18.4281 13.3333 20.6667 15.5719 20.6667 18.3333V19.9177C20.6667 20.922 19.9388 21.7783 18.9476 21.9402C13.2425 22.8716 7.42413 22.8716 1.71903 21.9402C0.727845 21.7783 0 20.922 0 19.9177V18.3333Z" fill="white"/>
</svg>
