<svg width="24" height="24" viewBox="0 0 24 24" fill="none" xmlns="http://www.w3.org/2000/svg">
<path d="M13 5.33333C13 4.78104 12.5523 4.33333 12 4.33333C11.4477 4.33333 11 4.78104 11 5.33333V12C11 12.3448 11.1776 12.6653 11.47 12.848L15.47 15.348C15.9383 15.6407 16.5553 15.4983 16.848 15.03C17.1407 14.5617 16.9983 13.9447 16.53 13.652L13 11.4457V5.33333Z" fill="white"/>
<path fill-rule="evenodd" clip-rule="evenodd" d="M12 0.333328C5.55668 0.333328 0.333334 5.55667 0.333334 12C0.333334 18.4433 5.55668 23.6667 12 23.6667C18.4433 23.6667 23.6667 18.4433 23.6667 12C23.6667 5.55667 18.4433 0.333328 12 0.333328ZM2.33333 12C2.33333 6.66124 6.66125 2.33333 12 2.33333C17.3388 2.33333 21.6667 6.66124 21.6667 12C21.6667 17.3387 17.3388 21.6667 12 21.6667C6.66125 21.6667 2.33333 17.3387 2.33333 12Z" fill="white"/>
</svg>
