<svg width="26" height="24" viewBox="0 0 26 24" fill="none" xmlns="http://www.w3.org/2000/svg">
<path fill-rule="evenodd" clip-rule="evenodd" d="M6.66666 4.84131V3.2816C6.66666 2.12661 7.51165 1.14542 8.65387 0.974084L10.2804 0.730101C12.0834 0.459656 13.9166 0.459656 15.7196 0.730101L17.3461 0.974084C18.4883 1.14542 19.3333 2.12661 19.3333 3.2816V4.84131L21.6187 5.02578C23.3686 5.16703 24.7959 6.48455 25.0766 8.21751C25.6968 12.0476 25.6968 15.9525 25.0766 19.7825C24.7959 21.5155 23.3686 22.833 21.6187 22.9742L19.1228 23.1757C15.0476 23.5046 10.9524 23.5046 6.87716 23.1757L4.38127 22.9742C2.63142 22.833 1.20404 21.5155 0.923394 19.7825C0.303144 15.9525 0.303144 12.0476 0.923394 8.21751C1.20404 6.48455 2.63142 5.16703 4.38127 5.02578L6.66666 4.84131ZM10.5771 2.70797C12.1834 2.46703 13.8166 2.46703 15.4229 2.70797L17.0494 2.95196C17.2126 2.97643 17.3333 3.1166 17.3333 3.2816V4.70108C14.4468 4.53644 11.5532 4.53644 8.66666 4.70108V3.2816C8.66666 3.1166 8.78737 2.97643 8.95055 2.95196L10.5771 2.70797ZM7.03807 6.81783C11.0062 6.49753 14.9937 6.49753 18.9619 6.81783L21.4578 7.0193C22.29 7.08647 22.9688 7.71306 23.1023 8.53723C23.1854 9.05047 23.2567 9.56513 23.3163 10.0808C16.8128 13.2832 9.18717 13.2832 2.6837 10.0808C2.74323 9.56513 2.81456 9.05047 2.89767 8.53723C3.03114 7.71306 3.70998 7.08647 4.54218 7.0193L7.03807 6.81783ZM2.50518 12.2089C9.17105 15.2405 16.8289 15.2405 23.4948 12.2089C23.6219 14.6304 23.4911 17.0622 23.1023 19.4628C22.9688 20.2869 22.29 20.9135 21.4578 20.9807L18.9619 21.1822C14.9937 21.5025 11.0062 21.5025 7.03807 21.1822L4.54218 20.9807C3.70998 20.9135 3.03114 20.2869 2.89767 19.4628C2.50891 17.0622 2.37808 14.6304 2.50518 12.2089Z" fill="white"/>
</svg>
